<svg version="1.1" xmlns="http://www.w3.org/2000/svg" width="576" height="576" viewBox="0 0 576 576">
  <title></title>
  <path fill="#FFFFFF" d="M567.8 405.4c0 0 0 0 0 0 0.2-0.2 0.2-0.2 0.2-0.2s0 0 0 0 0.2-0.2 0.2-0.2c0 0 0.2-0.2 0.2-0.2s0 0 0 0 0.2-0.2 0.2-0.2c0 0 0 0 0 0 2-2.4 3.6-5 4.8-7.8 0 0 0 0 0-0.2 0 0 0-0.2 0-0.2s0-0.2 0-0.2c0 0 0 0 0 0 1.2-3 2-6.2 2.2-9.6 0 0 0 0 0 0s0-0.2 0-0.2c0 0 0-0.2 0-0.2s0-0.2 0-0.2c0 0 0-0.2 0-0.2s0 0 0-0.2c0-0.8 0-1.6 0-2.4 0 0 0 0 0-0.2 0 0 0-0.2 0-0.2s0-0.2 0-0.2c0 0 0-0.2 0-0.2s0-0.2 0-0.2c0 0 0 0 0 0-0.2-3.4-1-6.6-2.2-9.6 0 0 0 0 0-0.2 0 0 0 0 0-0.2 0 0 0-0.2-0.2-0.2 0 0 0 0 0 0-1.2-3-3-5.6-5-8.2 0 0 0 0 0 0s-0.2-0.2-0.2-0.2c0 0 0 0 0 0s-0.2-0.2-0.2-0.2-0.2-0.2-0.2-0.2 0 0 0-0.2c-0.4-0.4-0.8-0.8-1.2-1.2l-192-192c-12.4-12.4-32.8-12.4-45.2 0s-12.4 32.8 0 45.2l137.4 137.4h-434.6c-17.6 0-32 14.4-32 32s14.4 32 32 32h434.8l-137.4 137.4c-12.4 12.4-12.4 32.8 0 45.2 6.2 6.2 14.4 9.4 22.6 9.4s16.4-3.2 22.6-9.4l191.8-191.8c0.6-0.8 1-1.4 1.4-1.8z"></path>
</svg>